<svg xmlns="http://www.w3.org/2000/svg" version="1.0" viewBox="0 0 388 388" width="388" height="388">
  <title>Hello World Club</title>
  <g transform="translate(0.000000,388.000000) scale(0.100000,-0.100000)"
fill="#1a2e5c" stroke="none">
<path d="M1718 3673 c12 -2 32 -2 45 0 12 2 2 4 -23 4 -25 0 -35 -2 -22 -4z
M1663 3663 c4 -3 10 -3 14 0 3 4 0 7 -7 7 -7 0 -10 -3 -7 -7z M1740 3660 c-36
-3 -75 -12 -87 -18 -28 -15 -36 -15 -28 1 4 6 0 4 -8 -5 -8 -10 -16 -15 -19
-13 -8 8 -33 -25 -33 -44 0 -9 -6 -16 -13 -16 -13 0 -32 -23 -31 -40 0 -5 7 1
15 15 10 17 13 18 9 5 -4 -11 -10 -28 -13 -38 -2 -10 -8 -14 -11 -9 -3 6 -6
-18 -6 -53 0 -35 4 -61 9 -58 5 4 6 -5 3 -19 -4 -16 -1 -32 9 -44 8 -10 12
-13 8 -5 -5 10 -3 12 5 7 7 -5 10 -14 7 -21 -6 -16 29 -50 52 -50 10 0 16 -5
15 -12 -2 -7 4 -10 13 -6 8 3 14 2 13 -3 -4 -21 2 -28 11 -14 6 10 9 -145 8
-445 -1 -280 -4 -403 -8 -315 l-6 145 -2 -153 c-1 -114 1 -151 10 -146 6 4 8
3 5 -3 -11 -17 -64 -2 -75 20 -9 19 -10 17 -5 -10 4 -26 2 -33 -10 -33 -8 0
-18 -6 -21 -12 -5 -10 -7 -10 -12 0 -5 10 -10 8 -20 -7 -15 -20 -54 -25 -51
-6 1 5 -5 9 -13 7 -8 -2 -12 -1 -9 3 4 3 -29 40 -72 81 -43 40 -75 74 -71 74
4 0 38 -30 77 -67 38 -38 28 -24 -24 29 -52 53 -98 95 -102 93 -4 -3 -13 3
-20 13 -13 15 -12 16 4 3 23 -18 22 1 -1 22 -21 19 -37 22 -26 5 4 -7 3 -8 -5
-4 -6 4 -9 12 -5 17 8 14 -36 60 -50 52 -6 -3 -7 -2 -3 2 9 11 -313 336 -325
329 -5 -3 -8 -2 -7 3 3 19 -2 34 -10 28 -6 -3 -6 8 -1 27 14 55 18 128 8 122
-6 -4 -7 2 -3 16 5 17 4 21 -6 15 -9 -6 -11 -3 -6 8 4 11 -3 27 -19 44 -14 16
-22 21 -18 13 7 -13 5 -13 -9 -1 -9 7 -15 17 -12 21 3 5 0 12 -6 16 -8 4 -9 3
-5 -4 4 -7 2 -12 -3 -12 -6 0 -11 6 -11 14 0 8 -6 14 -12 13 -7 0 -22 1 -33 2
-17 1 -18 3 -5 11 11 8 8 9 -12 4 -18 -4 -28 -2 -28 5 0 6 -13 11 -30 11 -16
0 -30 -5 -30 -11 0 -7 -10 -9 -25 -7 -13 3 -22 1 -19 -3 5 -9 0 -11 -28 -13
-7 -1 -19 -8 -26 -16 -10 -11 -12 -11 -6 -1 5 9 3 12 -4 7 -7 -4 -12 -14 -12
-22 0 -8 -3 -13 -7 -11 -5 3 -17 -5 -28 -16 -11 -11 -14 -17 -7 -13 8 5 7 -4
-4 -28 -10 -19 -20 -34 -23 -32 -3 2 -6 -29 -6 -69 0 -42 4 -71 9 -67 5 3 7
-2 3 -11 -3 -10 -2 -17 4 -17 6 0 7 -4 4 -10 -3 -5 -1 -10 5 -10 6 0 8 -5 4
-11 -9 -16 45 -69 64 -62 10 4 13 2 8 -5 -5 -8 -1 -10 10 -5 12 4 15 3 10 -5
-5 -8 -1 -10 10 -5 11 4 15 3 11 -4 -5 -7 1 -9 15 -5 11 3 19 1 16 -4 -8 -12
155 -12 164 1 4 6 8 2 8 -9 0 -22 537 -572 556 -570 8 1 12 -2 9 -6 -3 -5 16
-30 42 -57 27 -27 33 -33 16 -13 -18 20 -33 40 -33 45 1 6 18 -10 39 -34 l39
-44 -19 -31 c-10 -17 -19 -35 -19 -41 1 -5 7 1 15 15 8 14 14 21 14 15 0 -14
-28 -63 -29 -50 0 6 -5 3 -10 -5 -6 -8 -8 -26 -5 -40 l6 -25 -331 3 -330 3 -2
127 -2 127 -6 -135 -6 -135 0 135 c1 105 4 134 14 132 19 -4 82 47 76 63 -3 7
0 16 7 21 8 5 10 3 4 -6 -5 -9 -4 -11 4 -6 6 4 9 11 6 16 -6 10 5 41 14 36 12
-8 5 164 -9 177 -10 10 -10 8 -1 -10 19 -36 12 -40 -9 -5 -23 38 -25 46 -7 36
6 -4 1 5 -12 19 -30 33 -41 36 -16 5 10 -13 2 -6 -18 15 -30 31 -41 36 -64 31
-20 -4 -24 -3 -14 4 11 8 -2 10 -42 10 -34 0 -54 -5 -51 -10 4 -6 -2 -7 -16
-3 -17 5 -20 4 -15 -5 5 -8 3 -11 -6 -8 -8 3 -20 -2 -27 -11 -10 -12 -12 -13
-6 -1 7 13 5 13 -9 1 -9 -7 -17 -20 -17 -28 0 -8 -4 -12 -9 -9 -5 3 -15 -2
-22 -11 -12 -14 -12 -16 1 -8 8 4 5 -2 -7 -14 -23 -22 -31 -37 -14 -27 5 4 7
-3 4 -15 -4 -13 -8 -17 -13 -9 -4 6 -6 -20 -5 -57 3 -87 3 -86 17 -77 8 5 9 2
5 -9 -4 -10 -2 -16 5 -14 6 1 13 -4 16 -12 3 -9 0 -11 -9 -6 -8 5 -1 -6 15
-23 17 -18 32 -32 35 -32 2 0 -6 12 -20 27 l-24 27 31 -25 c17 -13 30 -27 28
-30 -5 -9 22 -30 29 -23 3 4 6 -141 7 -321 0 -180 3 -332 6 -336 3 -5 -2 -6
-11 -3 -11 5 -15 2 -13 -7 1 -8 -7 -24 -20 -37 -20 -20 -26 -20 -23 1 2 16
-10 5 -39 -34 -22 -31 -28 -49 -24 -68 4 -21 3 -23 -6 -11 -8 12 -9 6 -5 -25
15 -100 15 -101 6 -80 -5 11 -10 15 -10 8 -2 -20 11 -43 20 -37 5 3 6 -2 3
-10 -3 -8 7 -27 23 -43 15 -16 21 -20 13 -8 -8 11 2 4 22 -17 35 -36 56 -50
43 -28 -3 6 1 7 9 4 9 -3 13 -10 10 -15 -3 -5 10 -6 28 -3 25 4 29 3 18 -5
-12 -8 -8 -11 18 -11 18 0 31 4 28 9 -6 9 72 33 84 26 3 -2 17 6 30 16 l25 20
-25 -11 -25 -11 21 18 c12 10 30 24 40 31 11 7 12 10 4 7 -12 -5 -12 -4 1 7 9
7 14 19 11 27 -2 8 -1 11 4 8 5 -3 8 33 7 80 -1 89 -20 134 -67 163 -12 7 -4
-6 17 -28 53 -59 46 -59 -15 1 l-53 51 5 131 5 130 300 0 c344 0 354 -1 347
-29 -4 -14 -2 -17 7 -11 10 6 11 2 6 -15 -5 -17 -4 -21 6 -15 9 6 11 3 6 -8
-8 -22 2 -49 16 -40 6 3 7 1 3 -5 -4 -6 -2 -21 4 -32 6 -11 7 -19 3 -18 -4 2
-9 -1 -11 -7 -7 -20 -35 -44 -45 -38 -5 3 -7 1 -4 -4 4 -6 -1 -17 -10 -24 -14
-12 -16 -12 -9 1 5 8 -19 -12 -53 -45 -61 -60 -72 -72 -48 -59 6 4 -4 -9 -22
-29 -41 -43 -55 -50 -21 -9 13 15 -80 -76 -208 -203 -127 -126 -232 -234 -232
-239 0 -5 10 -1 23 10 12 10 9 4 -7 -14 -28 -30 -50 -46 -28 -19 8 9 -9 13
-81 15 -51 1 -86 -1 -80 -6 14 -9 -45 -35 -68 -30 -7 2 -13 -1 -14 -7 -1 -19
-17 -36 -41 -46 -34 -12 -64 -81 -62 -144 l1 -50 7 55 8 55 -2 -67 c0 -37 3
-64 8 -61 5 4 7 -4 4 -15 -4 -14 -2 -20 4 -16 6 4 9 1 6 -6 -2 -7 10 -27 27
-44 l31 -31 -31 25 -30 25 29 -32 c15 -17 34 -29 41 -26 8 2 18 -5 25 -16 6
-12 16 -21 23 -21 8 0 7 4 -3 11 -12 9 -12 10 3 5 10 -3 23 -6 28 -6 6 0 8 -3
6 -7 -3 -5 21 -8 53 -8 32 -1 56 3 54 7 -3 4 -1 8 5 8 5 0 18 3 28 6 15 5 15
4 3 -5 -12 -8 -12 -11 -2 -11 8 0 16 9 19 20 3 11 10 20 15 20 5 0 6 -6 2 -12
-4 -8 -3 -10 2 -5 5 5 9 14 9 20 0 5 6 12 14 15 9 3 11 0 6 -9 -4 -8 3 -4 15
8 13 12 24 30 25 40 1 10 7 35 14 57 9 25 11 56 6 90 -4 28 -8 59 -8 68 -2 15
240 268 365 383 23 22 -49 -53 -161 -167 -126 -127 -201 -211 -198 -219 4 -11
6 -11 6 1 1 8 119 134 264 279 144 145 256 260 250 257 -7 -4 -13 -3 -13 1 0
13 74 83 87 83 5 0 32 23 58 51 37 39 50 48 59 38 8 -9 8 -10 -3 -4 -10 6 -12
4 -5 -6 5 -8 7 -23 6 -34 -2 -19 -2 -19 12 -2 18 23 70 13 62 -12 -5 -13 -4
-13 8 2 7 9 19 17 27 17 12 0 12 -2 1 -9 -10 -6 -9 -10 7 -14 13 -3 19 -1 14
5 -3 7 -1 8 5 4 8 -5 11 -137 9 -454 -1 -333 -3 -396 -7 -247 l-6 200 -3 -225
c-2 -124 -3 -229 -2 -234 1 -5 -5 -6 -13 -3 -9 4 -15 3 -13 -2 1 -4 -13 -22
-30 -38 -32 -30 -45 -32 -21 -2 7 7 2 5 -10 -7 -27 -24 -32 -47 -36 -161 -3
-55 0 -81 7 -76 6 4 7 1 3 -6 -5 -7 0 -19 10 -27 11 -9 13 -13 4 -9 -8 4 -6
-1 5 -10 11 -9 19 -21 18 -26 -2 -5 0 -8 5 -7 15 3 42 -15 35 -25 -3 -5 -1 -7
5 -4 14 9 43 -3 36 -14 -3 -5 -2 -10 3 -10 24 -4 155 -5 145 -1 -7 2 9 15 35
28 56 28 56 28 48 12 -4 -7 9 4 29 24 24 25 34 43 29 54 -4 11 -2 15 4 11 7
-5 9 1 6 15 -4 18 -2 20 5 9 8 -11 9 -3 6 30 -3 34 -2 38 5 19 l9 -25 1 27 c1
22 9 29 46 44 25 9 44 19 41 21 -2 2 -21 -3 -41 -11 -21 -9 -39 -16 -40 -16
-6 0 -28 65 -26 77 1 6 -4 15 -10 19 -8 5 -9 3 -4 -6 5 -9 4 -11 -4 -6 -6 4
-9 12 -5 17 3 5 1 16 -6 23 -23 29 -19 57 16 111 19 30 39 54 44 52 6 -1 20
13 31 30 12 18 19 33 16 33 -3 0 -14 -15 -26 -33 -11 -17 -21 -26 -21 -18 0 7
17 30 38 49 20 20 31 32 23 27 -18 -10 22 62 56 101 20 24 19 21 -5 -16 -39
-61 -44 -70 -39 -70 10 0 72 105 69 116 -1 7 3 16 9 20 8 5 9 3 4 -6 -5 -8 -4
-11 3 -7 5 4 8 16 5 27 -3 12 0 20 6 20 7 0 9 -5 5 -12 -4 -7 -3 -8 4 -4 6 4
9 13 6 20 -3 7 5 24 16 37 12 13 18 18 14 10 -4 -9 -3 -12 4 -7 6 4 9 13 6 20
-3 7 5 24 16 37 l21 24 -17 -30 -16 -30 20 25 c11 13 18 28 15 33 -2 4 2 19
11 32 17 25 27 26 156 10 21 -3 30 -1 22 4 -11 7 -10 10 3 15 24 9 27 8 19 -6
-5 -7 14 10 42 37 27 28 48 53 46 57 -2 5 2 8 8 8 7 0 9 8 5 21 -4 12 -3 19 2
16 5 -3 9 19 9 50 0 39 -2 50 -8 37 -6 -13 -7 -9 -3 14 3 23 1 31 -7 26 -8 -5
-9 -2 -5 10 4 10 3 15 -3 11 -12 -8 -33 33 -26 51 3 9 11 12 17 8 7 -4 9 -3 6
4 -9 13 2 44 13 37 4 -3 11 2 14 11 4 10 2 13 -7 9 -6 -4 -5 -1 4 7 9 7 14 19
11 27 -2 8 0 11 5 8 6 -4 15 5 22 19 6 15 7 23 1 19 -6 -4 -5 4 1 19 7 14 16
23 20 20 5 -3 6 2 3 10 -3 8 3 23 13 33 11 11 17 25 15 33 -3 7 0 10 7 6 6 -4
11 -2 11 3 0 6 -10 11 -22 11 -23 0 -80 30 -102 53 -6 7 -13 21 -14 32 -2 11
-8 25 -14 32 -5 7 -13 43 -17 80 l-8 68 -1 -55 c-1 -35 5 -70 18 -97 10 -24
17 -43 14 -43 -3 0 1 -10 7 -22 11 -21 11 -22 -5 -9 -14 12 -16 12 -10 -4 5
-13 4 -16 -4 -11 -8 5 -10 1 -5 -10 4 -12 3 -15 -5 -10 -8 5 -10 1 -5 -10 5
-13 3 -15 -7 -9 -9 5 -11 4 -6 -3 6 -11 -29 -92 -40 -92 -3 0 -2 5 1 10 3 6 4
10 1 10 -7 0 -56 -95 -56 -107 0 -4 5 -1 10 7 7 11 10 12 10 2 0 -8 -9 -16
-21 -19 -16 -5 -18 -8 -7 -15 8 -6 -7 -7 -42 -4 -39 5 -51 3 -40 -4 24 -16 2
-12 -33 7 -31 16 -32 16 -17 -3 14 -18 14 -18 -8 0 -12 11 -21 25 -18 31 2 7
-28 43 -67 81 l-72 69 70 -72 c38 -40 66 -73 62 -73 -16 0 -131 133 -130 151
2 36 3 40 12 35 12 -8 32 41 24 61 -5 11 -3 14 6 8 10 -6 11 -2 6 15 -5 15 -4
20 4 16 8 -5 9 12 6 56 -3 47 -2 54 4 28 l8 -35 2 43 c1 30 -2 41 -11 36 -8
-5 -9 4 -4 34 4 25 2 42 -4 42 -5 0 -6 7 -3 17 5 11 3 14 -6 8 -10 -6 -11 -2
-6 15 5 17 4 21 -6 15 -9 -6 -11 -3 -6 8 3 10 2 17 -4 17 -6 0 -8 4 -5 9 3 5
-1 11 -9 15 -23 8 -18 30 13 57 l27 24 -25 -30 c-13 -16 22 15 78 70 56 55
102 102 102 104 0 3 -13 -8 -30 -24 -16 -16 -30 -24 -30 -19 0 5 21 30 47 54
26 25 40 36 32 25 -13 -18 -13 -19 4 -6 9 7 17 17 17 22 0 12 43 55 52 52 5
-2 7 3 5 10 -1 6 6 11 15 9 9 -1 20 3 24 9 4 8 3 9 -4 5 -7 -4 -12 -4 -12 1 0
7 225 233 225 227 0 -2 -40 -45 -90 -96 -49 -51 -85 -90 -80 -85 6 4 117 114
247 245 l238 237 99 -99 c100 -100 147 -127 135 -79 -4 15 -2 23 6 23 9 0 10
11 6 38 -4 28 -3 32 4 17 9 -16 9 -14 5 13 -2 17 -2 46 2 64 5 28 7 30 15 13
5 -13 6 -4 3 25 -4 35 -3 40 5 25 8 -15 9 -11 5 20 -4 31 -3 37 5 25 9 -12 10
-6 5 25 -4 31 -3 37 5 25 9 -12 11 -10 7 12 -2 16 0 25 6 21 6 -3 7 11 3 38
-4 33 -3 39 4 24 8 -15 9 -9 5 25 -4 35 -3 40 5 25 8 -15 9 -11 5 20 -4 31 -3
37 5 25 9 -12 10 -6 5 25 -4 30 -3 36 5 25 8 -11 9 -5 5 25 -5 31 -4 37 5 25
9 -12 10 -7 4 20 -3 19 -8 37 -10 39 -2 2 -36 -4 -76 -13 -105 -25 -109 -25
-102 -15 8 14 -6 11 -21 -5 -17 -17 -129 -39 -157 -30 -15 4 -18 3 -13 -6 6
-9 -1 -10 -24 -5 -17 4 -31 3 -31 -3 0 -5 -12 -7 -26 -4 -19 3 -25 1 -20 -7 6
-9 0 -10 -20 -5 -20 5 -25 4 -19 -6 6 -9 -1 -11 -26 -5 -26 5 -31 4 -19 -5 12
-9 7 -10 -19 -5 -23 5 -31 4 -27 -4 4 -6 3 -11 -3 -11 -5 0 -22 -5 -38 -12
-15 -6 -32 -10 -38 -9 -5 1 35 -43 90 -98 55 -56 102 -101 104 -101 3 0 -10
16 -29 35 -19 19 -30 35 -24 34 5 0 22 -16 37 -35 l29 -34 -57 -59 c-37 -39
-52 -61 -43 -64 8 -3 6 -6 -5 -6 -10 -1 -16 -5 -13 -9 3 -5 -48 -60 -112 -123
-64 -63 -108 -103 -98 -89 11 14 2 7 -19 -15 -22 -22 -55 -55 -74 -73 -20 -18
-29 -30 -21 -26 8 4 -1 -9 -19 -29 -39 -42 -43 -44 -34 -20 4 11 3 14 -5 9 -7
-4 -12 -15 -12 -25 0 -9 -16 -33 -36 -52 -32 -30 -35 -31 -25 -9 12 24 11 24
-4 5 -9 -11 -77 -82 -152 -157 -97 -98 -140 -135 -148 -128 -7 5 -15 7 -19 3
-4 -4 -4 0 -1 9 4 10 1 16 -7 15 -33 -1 -48 4 -48 17 0 12 -7 13 -32 5 -40
-11 -41 -11 -33 0 3 5 1 12 -5 16 -6 4 -10 165 -10 451 0 385 2 445 15 450 8
4 13 10 10 14 -6 9 23 22 34 15 4 -2 23 12 42 32 19 21 26 31 17 24 -10 -7
-18 -9 -18 -3 0 15 26 33 35 24 5 -4 5 -1 1 6 -8 14 2 54 12 48 4 -2 7 27 7
64 0 38 -3 63 -7 57 -6 -9 -8 -9 -8 0 0 6 -3 20 -6 30 -5 15 -4 15 5 3 6 -8
11 -10 11 -4 0 5 -7 19 -16 30 -8 10 -13 12 -9 4 4 -8 0 -6 -9 4 -8 10 -13 22
-11 26 3 4 -5 16 -18 26 -21 19 -21 19 -7 0 14 -18 14 -19 -7 -8 -12 7 -25 17
-29 24 -5 7 -3 8 6 3 8 -5 11 -4 6 3 -4 6 -13 9 -21 6 -7 -3 -22 -1 -32 6 -16
9 -15 10 7 5 19 -5 22 -4 10 4 -8 6 -17 10 -20 9 -3 0 -34 -4 -70 -8z m-150
-54 c0 -3 -5 -8 -12 -12 -7 -4 -8 -3 -4 4 7 12 16 16 16 8z m220 -84 c57 -57
47 -140 -20 -175 -64 -33 -128 -8 -150 59 -35 106 93 193 170 116z m905 -269
c30 -31 54 -58 52 -59 -2 -2 -30 23 -62 56 -33 33 -56 60 -53 60 4 0 32 -26
63 -57z m-1130 27 c10 -11 16 -20 13 -20 -3 0 -13 9 -23 20 -10 11 -16 20 -13
20 3 0 13 -9 23 -20z m315 -5 c-7 -8 -17 -15 -22 -15 -11 0 14 29 26 30 5 0 3
-7 -4 -15z m-1224 -167 c33 -30 36 -35 31 -75 -11 -101 -117 -141 -187 -71
-36 35 -39 72 -10 128 21 41 33 47 92 49 29 1 46 -6 74 -31z m2126 -58 c-21
-22 -43 -40 -47 -40 -5 0 9 18 30 40 21 22 43 40 48 40 5 0 -9 -18 -31 -40z
m268 -154 c55 -54 100 -101 100 -104 0 -4 -47 40 -105 98 l-105 105 -63 -63
c-36 -36 -64 -56 -64 -48 0 8 3 13 7 11 3 -2 30 21 60 51 30 30 57 53 62 52 4
-2 52 -47 108 -102z m-2630 -21 c13 -14 21 -25 18 -25 -2 0 -15 11 -28 25 -13
14 -21 25 -18 25 2 0 15 -11 28 -25z m415 15 c3 -5 4 -10 1 -10 -3 0 -8 5 -11
10 -3 6 -4 10 -1 10 3 0 8 -4 11 -10z m75 -75 c30 -30 52 -55 49 -55 -2 0 -29
25 -59 55 -30 30 -52 55 -49 55 2 0 29 -25 59 -55z m1815 -33 l-79 -77 74 80
c41 44 77 79 80 77 2 -1 -32 -37 -75 -80z m-2078 31 c-4 -3 -10 -3 -14 0 -3 4
0 7 7 7 7 0 10 -3 7 -7z m123 -73 c0 -15 -5 -12 -26 11 -19 22 -19 22 4 10 12
-6 22 -16 22 -21z m350 -144 c0 -6 -24 15 -52 45 -88 92 -97 108 -20 34 40
-38 72 -74 72 -79z m-315 105 c-6 -5 -25 10 -25 20 0 5 6 4 14 -3 8 -7 12 -15
11 -17z m183 -184 c59 -60 109 -110 111 -113 2 -2 2 -4 0 -4 -2 0 -69 66 -149
147 -80 81 -128 132 -107 113 22 -19 87 -84 145 -143z m1432 169 c0 -3 -5 -8
-12 -12 -7 -4 -8 -3 -4 4 7 12 16 16 16 8z m-190 -189 c0 -2 -17 -19 -37 -38
l-38 -34 34 38 c33 34 41 42 41 34z m-959 -54 c13 -16 12 -17 -3 -4 -10 7 -18
15 -18 17 0 8 8 3 21 -13z m866 -41 c-10 -10 -14 -22 -10 -27 5 -4 3 -5 -4 -1
-6 3 -18 -2 -25 -12 -7 -10 -31 -34 -53 -52 -22 -19 -8 -2 30 38 39 40 72 72
74 72 2 0 -3 -8 -12 -18z m-887 -154 c0 -10 -110 98 -130 127 -8 11 19 -11 58
-50 40 -38 72 -73 72 -77z m-873 105 c-4 -3 -7 0 -7 7 0 7 3 10 7 7 3 -4 3
-10 0 -14z m353 -77 c0 -2 -7 -7 -16 -10 -8 -3 -12 -2 -9 4 6 10 25 14 25 6z
m1450 -51 c-24 -25 -46 -45 -49 -45 -5 0 47 58 69 77 32 27 22 11 -20 -32z
m-403 -71 c13 -4 20 -11 16 -17 -4 -6 0 -8 10 -4 10 3 17 2 17 -4 0 -5 6 -9
14 -7 8 2 22 -6 31 -17 9 -11 13 -14 10 -7 -18 35 49 -20 70 -57 6 -10 4 -12
-6 -7 -10 6 -10 4 1 -6 8 -7 15 -19 16 -25 2 -29 4 -34 13 -28 6 3 8 -10 5
-32 -4 -29 -3 -34 5 -23 8 11 11 2 10 -40 0 -42 -3 -50 -10 -35 -7 16 -8 13
-4 -12 2 -18 1 -33 -4 -33 -5 0 -12 -7 -15 -16 -4 -9 -2 -13 5 -8 8 4 7 0 0
-15 -7 -11 -14 -21 -17 -21 -3 0 -2 5 2 12 4 6 -16 -11 -43 -38 -74 -71 -86
-80 -108 -76 -12 2 -16 0 -8 -5 6 -4 -23 -7 -65 -7 -103 2 -104 2 -96 15 4 7
0 9 -14 5 -12 -4 -23 -2 -28 5 -5 8 -3 10 7 5 8 -4 3 1 -11 12 -13 11 -27 19
-31 17 -12 -8 -72 64 -66 79 7 19 -2 48 -13 41 -4 -2 -5 7 -2 22 3 18 1 24 -7
19 -8 -5 -11 7 -11 41 0 36 3 44 11 33 7 -11 8 -6 4 19 -6 26 -4 32 6 26 9 -6
11 -3 6 10 -8 18 40 105 57 105 5 0 1 -9 -9 -20 -10 -11 -16 -20 -14 -20 3 0
21 17 40 37 20 22 24 29 9 18 -23 -19 -24 -19 -10 -1 37 47 157 79 227 60z
m-450 -151 c-4 -3 -7 0 -7 7 0 7 3 10 7 7 3 -4 3 -10 0 -14z m-189 -50 c-87
-2 -229 -2 -315 0 -87 1 -16 3 157 3 173 0 244 -2 158 -3z m-491 -340 c-2 -32
-3 -6 -3 57 0 63 1 89 3 58 2 -32 2 -84 0 -115z m1293 112 c0 -8 -59 -65 -67
-65 -4 0 8 16 27 35 34 35 40 40 40 30z m-85 -75 c-3 -5 -12 -10 -18 -10 -7 0
-6 4 3 10 19 12 23 12 15 0z m-112 -37 c-7 -2 -21 -2 -30 0 -10 3 -4 5 12 5
17 0 24 -2 18 -5z m678 -66 c-10 -9 -11 -8 -5 6 3 10 9 15 12 12 3 -3 0 -11
-7 -18z m-1151 -10 c0 -2 -17 -19 -37 -38 l-38 -34 34 38 c33 34 41 42 41 34z
m720 -32 l-25 30 33 -29 c17 -17 32 -35 32 -41 0 -18 50 -56 63 -49 7 4 9 3 4
-1 -4 -5 3 -19 15 -32 22 -24 27 -35 34 -88 3 -28 3 -28 -5 -5 -7 20 -9 14
-10 -30 0 -41 2 -51 10 -40 8 11 9 8 4 -13 -4 -19 -2 -26 5 -22 5 3 11 0 12
-7 3 -29 5 -34 21 -65 16 -30 16 -32 -4 -55 -11 -12 -17 -17 -13 -9 4 9 3 12
-4 7 -6 -4 -9 -13 -6 -20 3 -8 0 -17 -7 -22 -8 -5 -10 -3 -4 6 5 8 4 11 -3 6
-6 -4 -9 -13 -6 -20 3 -7 -5 -24 -16 -37 -12 -13 -18 -18 -14 -10 4 9 3 12 -4
7 -6 -4 -9 -13 -6 -20 3 -7 -5 -24 -16 -37 -12 -13 -18 -18 -14 -10 4 9 3 12
-4 7 -6 -4 -9 -13 -6 -20 3 -7 -5 -24 -16 -37 -12 -13 -18 -18 -14 -10 4 9 3
12 -4 7 -6 -4 -9 -13 -6 -20 3 -8 0 -17 -7 -22 -8 -5 -10 -3 -4 6 5 9 4 11 -3
6 -8 -5 -9 -13 -3 -25 7 -13 6 -18 -4 -18 -8 0 -11 5 -8 10 3 6 1 7 -5 3 -6
-4 -9 -13 -6 -20 3 -7 -13 -32 -35 -55 -41 -42 -51 -59 -30 -45 8 4 7 0 -1
-15 -6 -12 -15 -19 -20 -16 -6 3 -8 0 -5 -7 2 -7 -7 -26 -21 -43 -15 -16 -23
-24 -19 -16 6 10 4 12 -4 7 -7 -5 -10 -15 -7 -23 3 -8 1 -11 -4 -8 -6 3 -10 2
-10 -4 0 -6 -7 -8 -15 -5 -13 5 -15 69 -15 464 0 448 1 459 20 465 11 4 20 11
20 16 0 6 9 7 21 4 14 -5 19 -3 15 3 -7 11 30 28 52 24 6 -2 12 2 12 8 0 6 5
8 10 5 6 -3 10 -1 10 4 0 6 15 -4 33 -22 30 -31 31 -31 7 -2z m-520 22 c0 -2
-19 -21 -42 -42 l-43 -40 40 43 c36 39 45 47 45 39z m-1040 -31 c0 -3 -5 -8
-12 -12 -7 -4 -8 -3 -4 4 7 12 16 16 16 8z m-20 -30 c0 -3 -5 -8 -12 -12 -7
-4 -8 -3 -4 4 7 12 16 16 16 8z m700 -89 c0 -2 -17 -19 -37 -38 l-38 -34 34
38 c33 34 41 42 41 34z m190 -31 c0 -3 -4 -8 -10 -11 -5 -3 -10 -1 -10 4 0 6
5 11 10 11 6 0 10 -2 10 -4z m-33 -33 c-4 -3 -7 0 -7 7 0 7 3 10 7 7 3 -4 3
-10 0 -14z m-246 -30 c-148 -140 -149 -141 -71 -60 41 42 78 77 82 77 5 0 0
-8 -11 -17z m229 14 c0 -2 -12 -14 -27 -28 l-28 -24 24 28 c23 25 31 32 31 24z
m897 -54 c-4 -3 -7 0 -7 7 0 7 3 10 7 7 3 -4 3 -10 0 -14z m53 -124 c15 -28 5
-23 -15 7 -9 15 -12 23 -6 20 6 -4 16 -16 21 -27z m-1341 4 c-32 -39 -59 -65
-59 -57 0 4 14 23 32 41 34 35 50 45 27 16z m-69 -67 c0 -2 -8 -10 -17 -17
-16 -13 -17 -12 -4 4 13 16 21 21 21 13z m-157 -103 c-7 -2 -19 -2 -25 0 -7 3
-2 5 12 5 14 0 19 -2 13 -5z m37 -13 c0 -5 -2 -10 -4 -10 -3 0 -8 5 -11 10 -3
6 -1 10 4 10 6 0 11 -4 11 -10z m-299 -127 c-12 -20 -14 -14 -5 12 4 9 9 14
11 11 3 -2 0 -13 -6 -23z m269 7 c57 -40 62 -128 11 -175 -24 -21 -113 -24
-137 -4 -80 66 -43 199 56 199 26 0 53 -8 70 -20z m1297 -137 c-4 -3 -10 -3
-14 0 -3 4 0 7 7 7 7 0 10 -3 7 -7z m-1177 -97 c0 -3 -4 -8 -10 -11 -5 -3 -10
-1 -10 4 0 6 5 11 10 11 6 0 10 -2 10 -4z m887 -53 c-3 -10 -5 -4 -5 12 0 17
2 24 5 18 2 -7 2 -21 0 -30z m148 -143 c31 -29 41 -89 21 -128 -14 -28 -68
-62 -98 -62 -25 0 -77 39 -94 71 -21 41 -6 98 34 129 35 28 102 23 137 -10z
m116 -208 c-10 -19 -41 -48 -41 -39 0 6 43 57 48 57 1 0 -2 -8 -7 -18z M1713
2143 c15 -2 37 -2 50 0 12 2 0 4 -28 4 -27 0 -38 -2 -22 -4z M1663 2133 c4 -3
10 -3 14 0 3 4 0 7 -7 7 -7 0 -10 -3 -7 -7z M1633 2123 c4 -3 10 -3 14 0 3 4
0 7 -7 7 -7 0 -10 -3 -7 -7z M1920 2076 c0 -2 8 -10 18 -17 15 -13 16 -12 3 4
-13 16 -21 21 -21 13z M1514 2018 c-4 -7 -3 -8 4 -4 12 7 16 16 8 16 -3 0 -8
-5 -12 -12z M1718 2023 c7 -3 16 -2 19 1 4 3 -2 6 -13 5 -11 0 -14 -3 -6 -6z
M1798 2011 c23 -11 45 -27 48 -36 3 -8 11 -15 17 -15 22 0 -49 59 -78 65 -24
5 -22 3 13 -14z M1645 2000 c-3 -5 -2 -10 4 -10 5 0 13 5 16 10 3 6 2 10 -4
10 -5 0 -13 -4 -16 -10z M1616 1964 c-5 -14 -4 -15 9 -4 17 14 19 20 6 20 -5
0 -12 -7 -15 -16z M1871 1934 c0 -11 3 -14 6 -6 3 7 2 16 -1 19 -3 4 -6 -2 -5
-13z M1882 1885 c0 -16 2 -22 5 -12 2 9 2 23 0 30 -3 6 -5 -1 -5 -18z M1590
1880 c0 -7 3 -10 7 -7 3 4 3 10 0 14 -4 3 -7 0 -7 -7z M1600 1840 c0 -7 3 -10
7 -7 3 4 3 10 0 14 -4 3 -7 0 -7 -7z M1866 1823 c-6 -14 -5 -15 5 -6 7 7 10
15 7 18 -3 3 -9 -2 -12 -12z M1630 1790 c0 -7 3 -10 7 -7 3 4 3 10 0 14 -4 3
-7 0 -7 -7z M1839 1783 c-13 -16 -12 -17 4 -4 9 7 17 15 17 17 0 8 -8 3 -21
-13z M1515 1750 c3 -5 8 -10 11 -10 3 0 2 5 -1 10 -3 6 -8 10 -11 10 -3 0 -2
-4 1 -10z M1803 1753 c4 -3 10 -3 14 0 3 4 0 7 -7 7 -7 0 -10 -3 -7 -7z M1713
1743 c4 -3 10 -3 14 0 3 4 0 7 -7 7 -7 0 -10 -3 -7 -7z M1743 1743 c4 -3 10
-3 14 0 3 4 0 7 -7 7 -7 0 -10 -3 -7 -7z M1545 1710 c10 -11 20 -20 23 -20 3
0 -3 9 -13 20 -10 11 -20 20 -23 20 -3 0 3 -9 13 -20z M1663 1633 c4 -3 10 -3
14 0 3 4 0 7 -7 7 -7 0 -10 -3 -7 -7z M1910 1500 c-9 -6 -10 -10 -3 -10 6 0
15 5 18 10 8 12 4 12 -15 0z M1825 1020 c0 -217 1 -306 2 -197 2 108 2 286 0
395 -1 108 -2 19 -2 -198z M2120 1375 c13 -14 26 -25 28 -25 3 0 -5 11 -18 25
-13 14 -26 25 -28 25 -3 0 5 -11 18 -25z M2194 1078 c-4 -7 -3 -8 4 -4 12 7
16 16 8 16 -3 0 -8 -5 -12 -12z M2134 988 c-4 -7 -3 -8 4 -4 12 7 16 16 8 16
-3 0 -8 -5 -12 -12z M2094 928 c-4 -7 -3 -8 4 -4 12 7 16 16 8 16 -3 0 -8 -5
-12 -12z M2054 868 c-4 -7 -3 -8 4 -4 12 7 16 16 8 16 -3 0 -8 -5 -12 -12z
M1974 748 c-4 -7 -3 -8 4 -4 12 7 16 16 8 16 -3 0 -8 -5 -12 -12z M1954 718
c-4 -7 -3 -8 4 -4 12 7 16 16 8 16 -3 0 -8 -5 -12 -12z M1879 603 c-13 -16
-12 -17 4 -4 16 13 21 21 13 21 -2 0 -10 -8 -17 -17z M3312 3483 c9 -2 19 -14
21 -26 4 -18 5 -17 6 6 1 22 -3 27 -21 26 -16 -1 -18 -3 -6 -6z M3258 3473 c7
-3 16 -2 19 1 4 3 -2 6 -13 5 -11 0 -14 -3 -6 -6z M1502 3440 c0 -19 2 -27 5
-17 2 9 2 25 0 35 -3 9 -5 1 -5 -18z M3213 3463 c4 -3 10 -3 14 0 3 4 0 7 -7
7 -7 0 -10 -3 -7 -7z M1972 3430 c0 -19 2 -27 5 -17 2 9 2 25 0 35 -3 9 -5 1
-5 -18z M3168 3453 c7 -3 16 -2 19 1 4 3 -2 6 -13 5 -11 0 -14 -3 -6 -6z
M3078 3433 c7 -3 16 -2 19 1 4 3 -2 6 -13 5 -11 0 -14 -3 -6 -6z M3028 3423
c6 -2 18 -2 25 0 6 3 1 5 -13 5 -14 0 -19 -2 -12 -5z M2988 3413 c7 -3 16 -2
19 1 4 3 -2 6 -13 5 -11 0 -14 -3 -6 -6z M1950 3350 c0 -7 3 -10 7 -7 3 4 3
10 0 14 -4 3 -7 0 -7 -7z M2668 3343 c7 -3 16 -2 19 1 4 3 -2 6 -13 5 -11 0
-14 -3 -6 -6z M2258 3213 c7 -3 16 -2 19 1 4 3 -2 6 -13 5 -11 0 -14 -3 -6 -6z
M1175 3200 c-3 -5 -1 -10 4 -10 6 0 11 5 11 10 0 6 -2 10 -4 10 -3 0 -8 -4
-11 -10z M1315 3186 c22 -14 46 -39 54 -56 7 -17 15 -29 18 -27 17 18 -69 107
-103 107 -5 0 9 -11 31 -24z M2213 3203 c4 -3 10 -3 14 0 3 4 0 7 -7 7 -7 0
-10 -3 -7 -7z M2314 3201 c7 -11 46 -35 46 -28 0 3 -12 12 -26 22 -15 9 -23
12 -20 6z M1654 3000 c0 -113 2 -159 3 -102 2 56 2 148 0 205 -1 56 -3 10 -3
-103z M2183 3193 c4 -3 10 -3 14 0 3 4 0 7 -7 7 -7 0 -10 -3 -7 -7z M1144
3178 c-4 -7 -3 -8 4 -4 7 4 12 9 12 12 0 8 -9 4 -16 -8z M2139 3153 c-13 -16
-12 -17 4 -4 9 7 17 15 17 17 0 8 -8 3 -21 -13z M385 3139 c-4 -6 -5 -12 -2
-15 2 -3 7 2 10 11 7 17 1 20 -8 4z M1107 3133 c-4 -3 -7 -13 -7 -22 1 -13 3
-13 11 2 11 19 8 33 -4 20z M2116 3113 c-11 -35 -10 -78 3 -100 6 -13 14 -23
17 -23 2 0 0 10 -7 21 -6 12 -9 44 -7 70 5 51 3 61 -6 32z M1824 2970 c0 -85
2 -120 3 -77 2 42 2 112 0 155 -1 42 -3 7 -3 -78z M2402 3068 c-1 -20 -5 -45
-8 -55 -5 -17 -5 -17 6 0 6 9 9 34 7 55 l-4 37 -1 -37z M1090 3065 c0 -14 2
-25 4 -25 2 0 6 11 8 25 3 14 1 25 -3 25 -5 0 -9 -11 -9 -25z M1380 3070 c0
-7 3 -10 7 -7 3 4 3 10 0 14 -4 3 -7 0 -7 -7z M363 3035 c0 -22 2 -30 4 -17 2
12 2 30 0 40 -3 9 -5 -1 -4 -23z M832 3030 c0 -19 2 -27 5 -17 2 9 2 25 0 35
-3 9 -5 1 -5 -18z M1381 3034 c-1 -12 -10 -33 -22 -48 -14 -18 -16 -24 -6 -20
18 7 41 58 34 76 -3 7 -6 4 -6 -8z M1100 3011 c0 -6 4 -13 10 -16 6 -3 7 1 4
9 -7 18 -14 21 -14 7z M821 2974 c0 -11 3 -14 6 -6 3 7 2 16 -1 19 -3 4 -6 -2
-5 -13z M2355 2961 c-6 -6 -23 -17 -40 -25 -18 -10 -23 -16 -13 -16 15 0 81
49 68 50 -4 0 -10 -4 -15 -9z M1130 2955 c0 -11 82 -45 107 -44 24 1 23 2 -9
8 -20 4 -48 15 -62 24 -26 17 -36 21 -36 12z M2610 2885 c-35 -36 -60 -64 -55
-64 10 1 132 129 124 129 -3 0 -34 -29 -69 -65z M3221 2934 c0 -11 3 -14 6 -6
3 7 2 16 -1 19 -3 4 -6 -2 -5 -13z M2248 2913 c7 -3 16 -2 19 1 4 3 -2 6 -13
5 -11 0 -14 -3 -6 -6z M1341 2904 c-1 -5 10 -32 23 -60 14 -27 25 -44 25 -39
0 15 -47 112 -48 99z M2130 2875 c-6 -15 -13 -32 -16 -36 -3 -5 -1 -9 3 -9 10
0 35 61 28 68 -2 3 -9 -8 -15 -23z M2202 2866 c-17 -37 -15 -45 4 -18 8 12 14
27 12 33 -2 6 -9 -1 -16 -15z M1291 2835 c0 -5 6 -21 14 -35 8 -14 14 -20 14
-15 0 6 -6 21 -14 35 -8 14 -14 21 -14 15z M2101 2804 c0 -11 3 -14 6 -6 3 7
2 16 -1 19 -3 4 -6 -2 -5 -13z M2170 2790 c0 -7 3 -10 7 -7 3 4 3 10 0 14 -4
3 -7 0 -7 -7z M1391 2785 c0 -5 9 -28 20 -50 10 -22 16 -29 13 -15 -7 28 -33
80 -33 65z M2140 2729 c-6 -11 -10 -25 -8 -30 2 -5 8 4 15 21 13 34 9 40 -7 9z
M2060 2713 c-26 -57 -40 -93 -36 -93 6 0 57 112 53 117 -2 2 -10 -9 -17 -24z
M1351 2695 c0 -5 6 -21 14 -35 8 -14 14 -20 14 -15 0 6 -6 21 -14 35 -8 14
-14 21 -14 15z M1436 2677 c3 -10 9 -15 12 -12 3 3 0 11 -7 18 -10 9 -11 8 -5
-6z M2110 2656 c-15 -39 -12 -46 6 -13 9 16 13 31 10 34 -3 3 -10 -6 -16 -21z
M1390 2605 c0 -5 5 -17 10 -25 5 -8 10 -10 10 -5 0 6 -5 17 -10 25 -5 8 -10
11 -10 5z M1493 2538 c28 -69 59 -129 52 -100 -9 30 -64 152 -70 152 -2 0 6
-24 18 -52z M2310 2580 c0 -7 3 -10 7 -7 3 4 3 10 0 14 -4 3 -7 0 -7 -7z
M3476 2558 c5 -8 -2 -9 -25 -5 -23 5 -30 3 -25 -5 5 -8 2 -9 -9 -5 -10 4 -16
2 -14 -5 1 -6 -4 -13 -12 -16 -9 -3 -11 0 -7 9 4 8 1 5 -6 -5 -7 -11 -26 -33
-42 -50 -16 -17 -22 -22 -15 -11 8 11 19 23 24 27 6 5 5 8 -2 8 -7 0 -24 -20
-38 -43 -27 -46 -35 -79 -9 -37 8 14 12 16 7 5 -12 -29 -12 -195 1 -188 5 4 7
-1 3 -11 -5 -11 -3 -15 5 -10 7 5 9 2 5 -9 -4 -10 4 -24 23 -40 19 -17 28 -32
26 -48 -5 -41 -100 -298 -107 -288 -3 6 -9 3 -11 -8 -3 -10 -9 -27 -13 -38 -6
-17 -5 -17 5 -5 9 12 10 10 4 -10 -22 -79 -87 -249 -94 -245 -5 3 -14 -11 -20
-30 -10 -31 -16 -35 -46 -35 -27 0 -36 6 -49 30 -9 17 -18 30 -21 30 -2 0 0
-9 6 -20 6 -11 9 -20 6 -20 -10 0 -68 112 -71 135 -1 14 -14 36 -28 49 -30 27
-66 93 -45 81 10 -6 11 -5 1 5 -11 12 -15 11 -25 -1 -27 -33 -79 -61 -104 -56
-13 2 -24 0 -24 -4 0 -5 4 -9 10 -9 5 0 7 -7 4 -15 -4 -8 1 -17 10 -21 9 -4
21 -15 27 -26 8 -15 8 -19 -1 -13 -7 4 -5 -6 4 -24 9 -17 21 -31 25 -31 9 0
71 -93 71 -106 0 -3 -6 -2 -12 1 -7 4 -4 -1 6 -9 11 -9 16 -16 10 -16 -5 0 -1
-5 8 -11 10 -5 23 -20 30 -32 10 -19 9 -20 -3 -10 -15 12 -18 6 -20 -54 -1
-13 -5 -20 -10 -17 -5 3 -9 -23 -8 -58 0 -47 3 -58 10 -43 7 16 9 14 6 -12 -2
-18 1 -29 5 -26 5 3 8 -3 6 -13 -2 -10 2 -19 7 -19 16 -1 35 -15 35 -27 0 -6
-7 -5 -17 3 -16 13 -17 12 -4 -4 8 -9 16 -15 19 -13 6 7 82 -32 82 -43 0 -6
89 -8 148 -2 17 1 112 91 112 105 0 6 -5 4 -11 -4 -9 -12 -10 -12 -5 3 3 10 6
21 6 23 0 3 4 3 9 -1 6 -3 8 10 6 32 -4 31 -3 34 4 13 7 -20 9 -14 9 30 1 42
-2 50 -9 35 -7 -15 -8 -11 -4 17 3 20 1 39 -5 43 -6 4 -8 -1 -4 -12 5 -17 5
-17 -6 0 -7 10 -9 21 -7 24 3 3 2 16 -4 30 -6 18 -6 22 3 17 8 -5 9 0 6 14 -4
14 -2 20 4 16 6 -4 8 2 3 16 -5 16 -4 20 5 15 9 -5 10 -1 5 15 -5 17 -4 21 6
15 9 -6 11 -3 6 8 -3 9 -2 27 3 39 5 14 9 17 10 8 1 -9 5 -6 10 8 5 12 6 30 3
39 -5 12 -3 14 7 8 10 -6 12 -4 7 8 -8 22 2 49 15 41 6 -4 7 2 3 16 -5 16 -4
20 5 15 9 -5 10 -1 5 15 -5 15 -4 20 4 16 11 -7 16 11 13 47 -1 10 2 16 7 13
5 -3 12 1 15 10 9 24 7 31 -4 14 -12 -18 -12 -2 0 25 6 14 9 15 10 5 1 -16 22
28 34 71 6 19 5 21 -4 9 -10 -13 -11 -12 -6 3 3 10 6 24 6 30 0 7 4 6 10 -3 6
-9 10 -10 10 -3 0 6 3 20 6 30 5 15 4 16 -6 3 -10 -13 -11 -12 -6 3 3 10 6 21
6 23 0 3 5 2 12 -2 8 -5 9 0 6 14 -4 14 -2 20 4 16 6 -4 8 2 3 16 -4 14 -3 20
3 16 5 -3 13 1 16 10 9 23 8 26 -6 19 -7 -4 -5 0 4 8 10 8 15 16 12 19 -2 3 8
4 23 2 22 -4 24 -3 8 4 -16 8 -15 10 14 15 18 4 37 4 42 1 5 -3 8 0 7 7 -2 6
3 14 11 17 9 3 11 0 6 -8 -16 -26 43 26 63 55 24 35 42 80 22 55 -10 -13 -11
-12 -6 3 3 10 6 21 6 23 0 3 4 3 9 0 5 -4 8 20 8 53 -1 33 -5 54 -9 48 -6 -9
-8 -9 -8 0 0 6 -3 20 -6 30 -5 15 -4 15 5 3 14 -19 14 -9 1 26 -6 15 -13 24
-17 20 -8 -7 -33 13 -33 26 0 6 8 4 18 -3 9 -7 4 1 -11 18 -18 19 -35 29 -47
26 -10 -3 -21 0 -24 6 -5 7 -1 8 10 4 12 -4 15 -3 10 5 -4 7 -17 10 -33 6 -16
-4 -24 -3 -20 3 4 6 -4 8 -20 5 -18 -3 -24 -1 -19 7 5 7 -4 11 -29 11 -25 0
-34 -4 -29 -12z m184 -53 c7 -9 8 -15 2 -15 -5 0 -12 7 -16 15 -3 8 -4 15 -2
15 2 0 9 -7 16 -15z m47 -72 c-4 -3 -7 0 -7 7 0 7 3 10 7 7 3 -4 3 -10 0 -14z
m-134 -13 c29 -23 48 -77 40 -112 -19 -76 -124 -106 -183 -53 -40 36 -36 118
8 168 22 25 101 23 135 -3z m127 -213 c0 -2 -15 -16 -32 -33 l-33 -29 29 33
c28 30 36 37 36 29z m-344 -30 c3 -21 1 -21 -20 2 -17 19 -17 19 0 17 9 -2 18
-10 20 -19z m81 -314 c-4 -3 -7 0 -7 7 0 7 3 10 7 7 3 -4 3 -10 0 -14z m-290
-370 c-4 -3 -7 0 -7 7 0 7 3 10 7 7 3 -4 3 -10 0 -14z m-10 -30 c-4 -3 -7 0
-7 7 0 7 3 10 7 7 3 -4 3 -10 0 -14z m-60 -20 c-4 -3 -10 -3 -14 0 -3 4 0 7 7
7 7 0 10 -3 7 -7z m-166 -116 c-10 -9 -11 -8 -5 6 3 10 9 15 12 12 3 -3 0 -11
-7 -18z m349 -211 c0 -3 -5 -8 -12 -12 -7 -4 -8 -3 -4 4 7 12 16 16 16 8z
m-30 -30 c0 -2 -8 -10 -17 -17 -16 -13 -17 -12 -4 4 13 16 21 21 21 13z m-43
-33 c-4 -3 -10 -3 -14 0 -3 4 0 7 7 7 7 0 10 -3 7 -7z m-34 -10 c-7 -2 -19 -2
-25 0 -7 3 -2 5 12 5 14 0 19 -2 13 -5z M1410 2550 c0 -7 3 -10 7 -7 3 4 3 10
0 14 -4 3 -7 0 -7 -7z M1984 2548 c-4 -7 -3 -8 4 -4 12 7 16 16 8 16 -3 0 -8
-5 -12 -12z M2040 2493 c-29 -63 -69 -163 -64 -163 3 0 13 19 23 43 10 23 28
64 40 90 12 27 21 51 18 53 -2 2 -10 -8 -17 -23z M1435 2490 c3 -5 8 -10 11
-10 3 0 2 5 -1 10 -3 6 -8 10 -11 10 -3 0 -2 -4 1 -10z M1952 2467 c-16 -31
-32 -77 -27 -77 6 0 46 92 42 97 -2 1 -9 -7 -15 -20z M1450 2460 c0 -7 3 -10
7 -7 3 4 3 10 0 14 -4 3 -7 0 -7 -7z M802 2410 c0 -19 2 -27 5 -17 2 9 2 25 0
35 -3 9 -5 1 -5 -18z M1460 2435 c0 -5 5 -17 10 -25 5 -8 10 -10 10 -5 0 6 -5
17 -10 25 -5 8 -10 11 -10 5z M1556 2397 c3 -10 9 -15 12 -12 3 3 0 11 -7 18
-10 9 -11 8 -5 -6z M3273 2335 c0 -33 2 -45 4 -27 2 18 2 45 0 60 -2 15 -4 0
-4 -33z M1910 2370 c0 -7 3 -10 7 -7 3 4 3 10 0 14 -4 3 -7 0 -7 -7z M1490
2360 c0 -7 3 -10 7 -7 3 4 3 10 0 14 -4 3 -7 0 -7 -7z M1570 2360 c0 -7 3 -10
7 -7 3 4 3 10 0 14 -4 3 -7 0 -7 -7z M1895 2339 c-4 -6 -5 -12 -2 -15 2 -3 7
2 10 11 7 17 1 20 -8 4z M1960 2310 c0 -7 3 -10 7 -7 3 4 3 10 0 14 -4 3 -7 0
-7 -7z M3280 2260 c0 -7 3 -10 7 -7 3 4 3 10 0 14 -4 3 -7 0 -7 -7z M3583
2113 c4 -3 10 -3 14 0 3 4 0 7 -7 7 -7 0 -10 -3 -7 -7z M2643 2093 c4 -3 10
-3 14 0 3 4 0 7 -7 7 -7 0 -10 -3 -7 -7z M2594 2075 c-10 -8 -14 -15 -8 -15 5
0 19 7 30 15 10 8 14 15 8 15 -5 0 -19 -7 -30 -15z M2825 2058 c16 -15 34 -28
39 -28 5 0 -4 10 -20 22 -44 33 -53 36 -19 6z M3340 2080 c0 -7 3 -10 7 -7 3
4 3 10 0 14 -4 3 -7 0 -7 -7z M3326 2045 c-9 -26 -7 -32 5 -12 6 10 9 21 6 23
-2 3 -7 -2 -11 -11z M2554 2038 c-4 -7 -3 -8 4 -4 12 7 16 16 8 16 -3 0 -8 -5
-12 -12z M2521 1994 c-16 -37 -9 -39 11 -3 9 16 14 29 9 29 -4 0 -13 -12 -20
-26z M3310 2000 c0 -7 3 -10 7 -7 3 4 3 10 0 14 -4 3 -7 0 -7 -7z M2886 1991
c4 -8 11 -28 15 -45 6 -29 7 -29 8 -5 1 14 -6 34 -15 45 -8 10 -12 13 -8 5z
M3300 1970 c0 -7 3 -10 7 -7 3 4 3 10 0 14 -4 3 -7 0 -7 -7z M3281 1923 c-1
-6 -4 -20 -7 -30 -5 -17 -5 -17 6 0 6 10 9 23 6 30 -3 9 -5 9 -5 0z M2901
1858 c0 -9 -4 -25 -7 -35 -5 -17 -5 -17 6 0 6 10 9 25 7 35 -4 15 -5 15 -6 0z
M3260 1860 c0 -7 3 -10 7 -7 3 4 3 10 0 14 -4 3 -7 0 -7 -7z M3220 1750 c0 -7
3 -10 7 -7 3 4 3 10 0 14 -4 3 -7 0 -7 -7z M2900 1710 c6 -11 13 -20 16 -20 2
0 0 9 -6 20 -6 11 -13 20 -16 20 -2 0 0 -9 6 -20z M3210 1720 c0 -7 3 -10 7
-7 3 4 3 10 0 14 -4 3 -7 0 -7 -7z M3200 1690 c0 -7 3 -10 7 -7 3 4 3 10 0 14
-4 3 -7 0 -7 -7z M3190 1660 c0 -7 3 -10 7 -7 3 4 3 10 0 14 -4 3 -7 0 -7 -7z
M2465 1629 c-4 -6 -5 -12 -2 -15 2 -3 7 2 10 11 7 17 1 20 -8 4z M3176 1625
c-9 -26 -7 -32 5 -12 6 10 9 21 6 23 -2 3 -7 -2 -11 -11z M2980 1570 c11 -22
23 -40 25 -40 3 0 -4 18 -15 40 -11 22 -23 40 -25 40 -3 0 4 -18 15 -40z
M3160 1580 c0 -7 3 -10 7 -7 3 4 3 10 0 14 -4 3 -7 0 -7 -7z M3150 1550 c0 -7
3 -10 7 -7 3 4 3 10 0 14 -4 3 -7 0 -7 -7z M685 1540 c3 -5 8 -10 11 -10 3 0
2 5 -1 10 -3 6 -8 10 -11 10 -3 0 -2 -4 1 -10z M475 1530 c-3 -6 1 -7 9 -4 18
7 21 14 7 14 -6 0 -13 -4 -16 -10z M2835 1490 c9 -16 18 -30 21 -30 2 0 -2 14
-11 30 -9 17 -18 30 -21 30 -2 0 2 -13 11 -30z M1510 1450 c0 -7 3 -10 7 -7 3
4 3 10 0 14 -4 3 -7 0 -7 -7z M1575 1430 c-4 -12 -5 -24 -2 -27 3 -2 8 5 12
17 4 12 5 24 2 27 -3 2 -8 -5 -12 -17z M1369 1403 l-24 -28 28 24 c25 23 32
31 24 31 -2 0 -14 -12 -28 -27z M1496 1415 c-9 -26 -7 -32 5 -12 6 10 9 21 6
23 -2 3 -7 -2 -11 -11z M1650 1420 c0 -7 3 -10 7 -7 3 4 3 10 0 14 -4 3 -7 0
-7 -7z M803 1355 c0 -27 2 -38 4 -22 2 15 2 37 0 50 -2 12 -4 0 -4 -28z M2530
1391 c0 -6 4 -13 10 -16 6 -3 7 1 4 9 -7 18 -14 21 -14 7z M1546 1353 c-6 -14
-5 -15 5 -6 7 7 10 15 7 18 -3 3 -9 -2 -12 -12z M371 1344 c0 -11 3 -14 6 -6
3 7 2 16 -1 19 -3 4 -6 -2 -5 -13z M1466 1345 c-9 -26 -7 -32 5 -12 6 10 9 21
6 23 -2 3 -7 -2 -11 -11z M1515 1278 c-31 -76 -36 -91 -32 -95 3 -2 17 26 31
63 15 36 25 68 23 70 -2 2 -12 -15 -22 -38z M1446 1295 c-9 -26 -7 -32 5 -12
6 10 9 21 6 23 -2 3 -7 -2 -11 -11z M1653 1230 c0 -47 2 -66 4 -42 2 23 2 61
0 85 -2 23 -4 4 -4 -43z M1426 1245 c-9 -26 -7 -32 5 -12 6 10 9 21 6 23 -2 3
-7 -2 -11 -11z M1402 1185 c-17 -37 -14 -45 4 -12 9 16 14 31 11 33 -2 2 -9
-7 -15 -21z M1460 1143 c-16 -36 -31 -88 -23 -79 9 9 43 99 39 103 -1 2 -9 -9
-16 -24z M648 1143 c7 -3 16 -2 19 1 4 3 -2 6 -13 5 -11 0 -14 -3 -6 -6z
M1376 1124 c-4 -9 -4 -19 -1 -22 2 -3 7 3 11 12 4 9 4 19 1 22 -2 3 -7 -3 -11
-12z M2514 1108 l-29 -33 33 29 c30 28 37 36 29 36 -2 0 -16 -15 -33 -32z
M1360 1080 c0 -7 3 -10 7 -7 3 4 3 10 0 14 -4 3 -7 0 -7 -7z M2620 1072 c0 -4
-16 -24 -36 -45 -20 -20 -33 -37 -30 -37 4 0 25 19 46 43 l40 42 73 -77 c40
-43 77 -78 81 -78 5 0 -27 36 -70 80 -69 71 -104 95 -104 72z M2984 1056 c11
-9 24 -16 30 -16 12 0 7 5 -24 19 -24 11 -24 11 -6 -3z M1342 1031 c-6 -17 -9
-31 -6 -31 7 0 25 52 20 57 -2 2 -8 -10 -14 -26z M2270 1038 c-9 -20 -9 -21 2
-7 7 9 20 18 28 22 12 4 12 6 -2 6 -10 1 -22 -9 -28 -21z M2348 1043 c12 -2
32 -2 45 0 12 2 2 4 -23 4 -25 0 -35 -2 -22 -4z M1416 1025 c-9 -26 -7 -32 5
-12 6 10 9 21 6 23 -2 3 -7 -2 -11 -11z M1375 925 c-16 -36 -26 -67 -23 -70 2
-3 17 25 31 62 35 87 28 93 -8 8z M2527 983 c-6 -9 145 -173 159 -173 7 0 -28
39 -102 114 -17 17 -35 39 -41 50 -6 10 -13 14 -16 9z M1305 947 c-21 -51 -18
-59 5 -13 11 22 18 42 15 44 -3 3 -12 -11 -20 -31z M500 950 c-8 -5 -10 -10
-5 -10 6 0 17 5 25 10 8 5 11 10 5 10 -5 0 -17 -5 -25 -10z M429 903 c-13 -16
-12 -17 4 -4 16 13 21 21 13 21 -2 0 -10 -8 -17 -17z M2184 908 c-4 -7 -3 -8
4 -4 12 7 16 16 8 16 -3 0 -8 -5 -12 -12z M2903 903 c4 -3 10 -3 14 0 3 4 0 7
-7 7 -7 0 -10 -3 -7 -7z M2845 890 c3 -5 12 -7 20 -3 21 7 19 13 -6 13 -11 0
-18 -4 -14 -10z M2944 893 c47 -12 115 -65 133 -103 10 -22 21 -40 26 -40 8 0
-24 65 -45 91 -7 8 -20 19 -28 23 -8 4 -26 13 -40 21 -14 8 -34 14 -45 14 -19
-1 -19 -2 -1 -6z M1271 859 c-6 -18 -9 -34 -7 -36 2 -2 9 10 15 28 6 18 9 34
7 36 -2 2 -9 -10 -15 -28z M1330 816 c-15 -39 -12 -46 6 -13 9 16 13 31 10 34
-3 3 -10 -6 -16 -21z M820 790 c0 -7 3 -10 7 -7 3 4 3 10 0 14 -4 3 -7 0 -7
-7z M1165 765 c-39 -18 -31 -18 25 -1 25 8 36 15 25 15 -11 0 -33 -6 -50 -14z
M2696 758 c-3 -13 -5 -39 -5 -58 1 -27 3 -22 9 20 9 58 7 77 -4 38z M833 735
c0 -22 2 -30 4 -17 2 12 2 30 0 40 -3 9 -5 -1 -4 -23z M1110 725 c-7 -9 -8
-15 -2 -15 5 0 12 7 16 15 3 8 4 15 2 15 -2 0 -9 -7 -16 -15z M3101 714 c0
-11 3 -14 6 -6 3 7 2 16 -1 19 -3 4 -6 -2 -5 -13z M1344 697 c15 -24 19 -43
17 -95 -1 -25 -11 -44 -36 -69 -43 -43 -47 -58 -4 -17 37 35 59 75 59 107 0
35 -19 85 -36 91 -12 5 -12 2 0 -17z M812 648 c-10 -30 -10 -31 3 -14 13 17
21 46 12 46 -1 0 -8 -15 -15 -32z M1080 670 c0 -7 3 -10 7 -7 3 4 3 10 0 14
-4 3 -7 0 -7 -7z M3100 660 c0 -7 3 -10 7 -7 3 4 3 10 0 14 -4 3 -7 0 -7 -7z
M1070 640 c0 -7 3 -10 7 -7 3 4 3 10 0 14 -4 3 -7 0 -7 -7z M2637 644 c-3 -3
-34 -17 -69 -30 -84 -31 -61 -30 32 1 80 27 94 35 63 35 -11 0 -22 -3 -26 -6z
M3090 630 c0 -7 3 -10 7 -7 3 4 3 10 0 14 -4 3 -7 0 -7 -7z M1080 591 c8 -29
38 -81 47 -81 3 0 -5 15 -16 34 -12 18 -21 40 -21 49 0 9 -4 18 -9 22 -6 3 -6
-6 -1 -24z M3058 567 c-14 -19 -43 -42 -62 -51 -39 -18 -47 -27 -17 -19 24 6
88 59 101 84 15 28 9 23 -22 -14z M1955 564 c-9 -15 -12 -23 -6 -20 11 7 35
46 28 46 -3 0 -12 -12 -22 -26z M2453 574 c-18 -8 -33 -16 -33 -19 0 -5 70 22
79 30 8 9 -14 4 -46 -11z M2622 557 c-45 -16 -81 -31 -79 -33 4 -5 126 34 162
51 49 24 6 15 -83 -18z M2755 540 c16 -16 31 -28 33 -25 7 7 -39 55 -52 55 -5
0 3 -13 19 -30z M1924 518 c-4 -7 -3 -8 4 -4 12 7 16 16 8 16 -3 0 -8 -5 -12
-12z M2310 520 c-18 -12 -2 -12 25 0 13 6 15 9 5 9 -8 0 -22 -4 -30 -9z M2513
513 c4 -3 10 -3 14 0 3 4 0 7 -7 7 -7 0 -10 -3 -7 -7z M2800 512 c0 -12 70
-32 106 -31 19 0 11 5 -26 13 -30 6 -61 15 -67 19 -7 5 -13 4 -13 -1z M1154
496 c11 -9 24 -16 30 -16 12 0 7 5 -24 19 -24 11 -24 11 -6 -3z M1594 498 c-4
-7 -3 -8 4 -4 12 7 16 16 8 16 -3 0 -8 -5 -12 -12z M2256 503 c-3 -4 -12 -8
-19 -9 -7 -1 -23 -7 -37 -13 l-25 -12 25 6 c14 3 33 8 42 10 10 2 26 8 35 14
15 9 15 10 2 11 -9 0 -19 -3 -23 -7z M1226 481 c-3 -4 6 -6 19 -3 14 2 25 6
25 8 0 8 -39 4 -44 -5z M2423 483 c4 -3 10 -3 14 0 3 4 0 7 -7 7 -7 0 -10 -3
-7 -7z M2125 455 c-25 -12 -26 -14 -5 -9 28 7 60 23 45 23 -5 0 -23 -6 -40
-14z M2320 450 c-18 -12 -2 -12 25 0 13 6 15 9 5 9 -8 0 -22 -4 -30 -9z M2073
433 c4 -3 10 -3 14 0 3 4 0 7 -7 7 -7 0 -10 -3 -7 -7z M2265 430 c-13 -6 -15
-9 -5 -9 8 0 22 4 30 9 18 12 2 12 -25 0z M2030 420 c-8 -5 -10 -10 -5 -10 6
0 17 5 25 10 8 5 11 10 5 10 -5 0 -17 -5 -25 -10z M1965 400 c-3 -5 -1 -10 4
-10 6 0 11 5 11 10 0 6 -2 10 -4 10 -3 0 -8 -4 -11 -10z M1993 403 c4 -3 10
-3 14 0 3 4 0 7 -7 7 -7 0 -10 -3 -7 -7z M2203 403 c4 -3 10 -3 14 0 3 4 0 7
-7 7 -7 0 -10 -3 -7 -7z M1511 374 c0 -11 3 -14 6 -6 3 7 2 16 -1 19 -3 4 -6
-2 -5 -13z M2143 383 c4 -3 10 -3 14 0 3 4 0 7 -7 7 -7 0 -10 -3 -7 -7z M2113
373 c4 -3 10 -3 14 0 3 4 0 7 -7 7 -7 0 -10 -3 -7 -7z M1502 320 c0 -19 2 -27
5 -17 2 9 2 25 0 35 -3 9 -5 1 -5 -18z M1510 260 c0 -7 3 -10 7 -7 3 4 3 10 0
14 -4 3 -7 0 -7 -7z M1840 105 c-14 -8 -20 -14 -14 -15 5 0 19 7 30 15 24 18
16 19 -16 0z"/>
</g>  <g transform="translate(0.000000,388.000000) scale(0.100000,-0.100000)"
fill="#6225e6" stroke="none">
<path d="M1695 3538 c-62 -36 -75 -116 -27 -169 23 -26 35 -31 71 -31 31 1 51
7 68 24 40 37 47 66 28 115 -24 63 -88 91 -140 61z M1186 3192 c-20 -8 -36
-18 -36 -23 0 -5 -5 -9 -11 -9 -5 0 -7 6 -3 13 4 6 3 8 -1 4 -5 -4 -10 -13
-11 -20 -1 -7 -7 -32 -13 -57 -20 -87 28 -163 113 -177 20 -3 33 -9 30 -14 -3
-5 1 -9 8 -9 14 -1 32 -37 92 -187 21 -51 34 -98 30 -104 -4 -7 -3 -9 3 -6 6
4 16 -5 21 -21 6 -15 27 -65 47 -112 20 -47 40 -94 45 -105 37 -90 41 -96 63
-89 12 3 24 8 25 10 6 5 -19 74 -53 149 -18 39 -42 95 -53 127 -12 31 -30 76
-41 100 -10 23 -37 84 -60 134 -23 50 -41 98 -41 107 0 9 -5 19 -10 22 -6 4
-8 11 -4 16 3 5 10 6 16 3 7 -5 8 -2 4 5 -5 7 0 21 10 32 25 28 31 119 9 152
-37 58 -117 84 -179 59z M2205 3193 c-38 -20 -49 -32 -69 -70 -20 -40 -20 -73
0 -121 8 -20 15 -39 15 -42 1 -3 6 -8 12 -12 9 -6 9 -8 0 -8 -7 0 -10 -6 -7
-13 3 -8 -11 -52 -31 -98 -20 -46 -42 -97 -49 -114 -8 -16 -22 -49 -32 -72
-10 -24 -21 -43 -26 -43 -4 0 -8 -6 -8 -13 0 -11 -19 -58 -92 -227 -6 -14 -11
-28 -10 -32 1 -5 -3 -8 -8 -8 -18 0 -10 -29 11 -40 21 -12 49 1 49 23 0 18
102 242 114 249 6 4 8 8 3 8 -4 0 0 17 9 38 8 20 18 48 20 62 3 14 9 27 15 28
5 2 9 9 9 15 0 7 9 29 20 50 11 20 32 67 47 103 15 40 29 61 33 54 6 -10 8
-10 12 0 2 6 22 12 45 13 23 1 40 5 40 8 -4 12 61 69 66 56 2 -6 4 27 3 75 0
48 -3 86 -6 85 -3 -1 -21 10 -40 24 -46 35 -105 44 -145 22z M529 3111 c-16
-16 -29 -38 -29 -48 0 -10 -3 -28 -6 -39 -4 -15 4 -32 26 -58 28 -31 38 -36
77 -36 36 0 50 6 74 29 24 24 29 38 29 76 0 64 -39 105 -100 105 -33 0 -48 -6
-71 -29z M3436 2415 c-13 -14 -27 -37 -30 -51 -9 -36 11 -101 37 -119 43 -30
133 -10 157 34 13 26 13 77 -1 104 -31 61 -120 78 -163 32z M2653 2103 c4 -3
10 -3 14 0 3 4 0 7 -7 7 -7 0 -10 -3 -7 -7z M2660 2093 c-14 -3 -37 -14 -51
-24 -34 -24 -46 -24 -28 -1 11 14 11 15 -1 5 -8 -7 -15 -19 -16 -27 -1 -8 -11
-27 -23 -43 -35 -46 -38 -122 -10 -194 30 -76 73 -113 133 -114 23 -1 48 -5
55 -10 10 -5 12 -4 7 4 -6 8 -1 10 17 6 15 -4 37 0 53 9 40 20 89 65 81 72 -3
4 1 23 9 43 62 146 -70 305 -226 274z M1720 2022 c-40 -4 -84 -40 -107 -89
-23 -49 -10 -96 39 -144 33 -32 47 -39 80 -39 43 0 84 17 112 49 10 11 22 19
25 16 4 -2 7 29 7 70 0 41 -2 73 -5 73 -14 -2 -40 15 -36 23 12 18 -66 46
-115 41z M1545 1486 c-18 -21 -65 -126 -65 -146 0 -11 -5 -20 -11 -20 -5 0 -7
-4 -4 -10 3 -5 -1 -20 -9 -32 -16 -26 -31 -61 -110 -263 -73 -187 -95 -236
-109 -240 -7 -2 -24 -6 -40 -9 -15 -4 -45 -24 -67 -46 -35 -35 -40 -46 -40
-85 0 -47 27 -114 46 -115 6 0 17 -7 24 -15 20 -24 94 -19 140 10 49 31 60 51
60 114 0 38 -6 56 -25 79 -14 17 -25 38 -25 48 0 17 35 110 74 197 8 18 33 82
56 142 24 61 60 151 81 200 39 94 69 174 69 189 0 4 -6 6 -14 3 -8 -3 -16 -2
-18 3 -2 4 -7 3 -13 -4z M2587 1016 l-47 -42 38 -37 c21 -21 42 -34 47 -30 4
5 5 3 2 -3 -8 -14 61 -87 74 -79 5 3 6 0 3 -8 -3 -8 -1 -18 5 -21 6 -4 6 -18
0 -39 -5 -17 -9 -48 -9 -69 l0 -37 -82 -32 c-46 -17 -94 -35 -108 -39 -14 -5
-70 -25 -125 -45 -164 -60 -279 -96 -293 -90 -7 2 -10 1 -7 -5 3 -5 -22 -19
-55 -31 -46 -17 -59 -26 -57 -40 5 -30 12 -31 71 -14 31 9 61 13 67 9 7 -4 9
-3 6 3 -8 13 249 107 269 99 8 -3 12 -2 9 3 -3 5 5 13 17 16 13 4 37 13 53 20
17 7 53 19 80 28 28 8 78 26 112 38 l62 24 38 -37 c67 -64 159 -80 236 -41 15
7 33 11 39 7 7 -4 8 -3 4 4 -4 7 4 23 18 37 52 52 60 169 15 237 -41 63 -163
112 -208 84 -6 -4 -19 -2 -28 6 -9 7 -17 11 -18 8 -4 -9 -95 75 -95 88 0 6 -7
12 -15 12 -8 0 -19 9 -25 20 -23 43 -44 42 -93 -4z M528 815 c-33 -30 -43 -74
-28 -119 14 -44 48 -66 100 -66 52 0 87 23 99 65 13 47 3 80 -32 115 -41 40
-99 42 -139 5z M1694 410 c-54 -22 -73 -113 -34 -163 24 -31 82 -50 113 -37
30 11 63 50 71 82 18 78 -73 149 -150 118z"/>
</g>
</svg>